<svg width="609" height="497" viewBox="0 0 609 497" fill="none" xmlns="http://www.w3.org/2000/svg">
<g clip-path="url(#clip0)">
<path d="M244.111 277.728L234.197 453.986L244.111 454.116L252.165 275.252L244.111 277.728Z" fill="#3F3D56"/>
<path d="M207.554 367.03H84.873V393.643H207.554V367.03Z" fill="#FEE7E7"/>
<path d="M215.609 390.542V407.252H88.8818C84.3959 404.026 79.9637 400.704 75.5852 397.288V390.542H215.609Z" fill="#3F3D56"/>
<path d="M240.913 352.51C240.566 354.113 240.114 355.698 239.637 357.276C238.231 361.837 236.539 366.337 236.211 371.077C235.771 377.341 237.45 384.625 233.113 389.174C231.997 390.35 230.541 391.229 229.544 392.485C229.39 392.682 229.249 392.889 229.122 393.104C228.23 394.577 228.125 396.372 228.112 398.056C228.123 401.646 228.357 405.232 228.813 408.794C230.281 421.048 233.181 433.327 229.37 444.894C228.68 446.901 227.875 448.866 226.96 450.78C225.101 454.865 223.075 458.894 222.468 463.319C222.022 466.599 222.158 469.979 222.133 473.314C220.175 472.691 218.219 472.056 216.266 471.408C204.464 467.509 192.795 463.177 181.258 458.411C181.289 458.244 181.32 458.071 181.345 457.904C182.231 452.395 181.017 446.763 179.542 441.391C176.444 430.01 172.057 418.739 169.461 407.277C168.415 402.8 167.73 398.247 167.41 393.661C167.336 392.634 167.292 391.6 167.286 390.567C167.255 389.218 167.286 387.868 167.342 386.507C167.472 383.79 167.59 380.565 165.415 378.913C164.219 378.015 162.639 377.861 161.245 377.316C158.556 376.27 156.716 373.844 154.584 371.901C153.568 370.915 152.326 370.192 150.967 369.793C149.608 369.394 148.172 369.332 146.784 369.611C132.855 372.798 122.619 384.6 109.657 390.567C109.155 390.802 108.653 391.025 108.145 391.235C106.469 391.848 104.873 392.663 103.393 393.661C102.353 394.382 101.599 395.444 101.261 396.663C100.933 397.975 101.218 399.349 101.379 400.698C101.64 402.892 101.546 405.113 101.1 407.277C100.932 408.116 100.711 408.943 100.437 409.753C99.9417 411.22 99.2787 412.655 98.6467 414.085C95.3422 411.865 92.0852 409.596 88.8756 407.277C84.3897 404.051 79.9575 400.729 75.579 397.313L72.9209 395.178C61.4623 386.215 50.7266 376.367 40.8131 365.724C42.1329 362.01 44.0413 358.557 44.9583 354.751C45.4787 352.566 45.6708 350.295 46.3896 348.172C47.2184 345.971 48.3711 343.906 49.8098 342.045C55.0785 334.705 61.5121 328.275 68.8563 323.007C76.5332 317.511 85.3997 313.104 92.3082 306.866C95.1118 304.414 97.5287 301.553 99.477 298.381C99.5947 298.189 99.7062 297.985 99.8054 297.762C100.345 296.642 100.718 295.449 100.914 294.222C101.41 291.449 101.336 288.404 101.584 285.743C110 287.198 118.579 287.456 127.068 286.51C136.95 285.402 146.616 282.661 156.499 281.596C157.242 281.509 157.992 281.441 158.742 281.379C161.908 281.126 165.08 281.07 168.259 281.107C170.917 281.107 173.575 281.225 176.233 281.311L205.497 282.302C208.737 282.413 212.046 282.537 215.064 283.719C218.645 285.124 221.514 287.921 223.812 290.997C224.104 291.393 224.395 291.789 224.667 292.198C226.559 294.954 228.076 297.949 229.178 301.104C229.296 301.426 229.407 301.723 229.513 302.076C229.792 302.936 230.033 303.802 230.25 304.681C230.417 305.368 230.566 306.055 230.702 306.748C231.384 310.177 231.787 313.68 232.865 316.991C232.939 317.233 233.02 317.474 233.106 317.709C234.401 321.336 236.551 324.585 238.175 328.07C239.345 330.592 240.239 333.234 240.839 335.948C242.053 341.4 242.078 347.048 240.913 352.51Z" fill="#35323E"/>
<path d="M151.963 131.022C149.349 128.943 145.557 130.465 142.496 131.808C139.93 132.941 137.288 133.894 134.59 134.662C134.038 134.874 133.439 134.936 132.855 134.841C131.616 134.544 131.095 133.077 130.172 132.186C128.567 130.645 125.94 131.01 123.871 131.846C121.801 132.681 119.757 133.888 117.538 133.702C115.172 133.517 113.114 131.771 110.723 131.716C106.509 131.617 102.972 136.803 98.9875 135.429C96.5587 134.593 94.6503 131.437 92.2587 132.334C90.3999 133.04 90.2326 135.608 89.1111 137.286C87.7913 139.241 85.22 139.792 83.0204 140.659C76.0871 143.394 71.4958 151.112 72.4004 158.502C72.9023 162.58 74.8788 166.319 76.1862 170.211C80.0649 181.531 78.7328 194.299 83.6214 205.217C84.241 204.635 84.588 204.418 85.189 203.843C83.6433 207.045 83.3451 210.707 84.3525 214.117C84.8668 215.831 85.7033 217.428 86.3353 219.105C86.9918 220.986 87.5217 222.909 87.9214 224.861L93.312 248.614C95.4186 257.898 97.5314 267.182 97.897 276.688C98.1246 282.869 97.6507 289.057 96.4843 295.131C106.249 293.516 115.184 289.19 125.079 289.246C128.71 289.246 132.31 289.865 135.91 290.36C146.405 291.827 156.992 292.544 167.59 292.507C169.238 292.601 170.889 292.37 172.447 291.826C173.811 291.245 174.926 290.211 176.215 289.462C178.736 287.977 181.791 287.606 184.697 287.606C197.95 287.364 210.72 292.21 223.887 293.918C229.085 283.019 229.395 269.961 225.405 258.566C224.221 255.181 222.629 251.882 222.158 248.324C221.969 246.136 221.919 243.939 222.009 241.745C221.989 236.128 220.976 230.559 219.017 225.294C218.248 223.233 217.325 221.135 217.406 218.938C217.486 216.741 218.571 214.692 219.636 212.749C221.799 208.788 223.973 204.79 227.028 201.448C230.157 197.994 234.073 195.364 237.945 192.783L247.506 186.371C246.199 178.121 244.513 169.432 241.013 161.844C237.512 154.256 232.276 147.281 225.194 142.843C222.806 141.409 220.308 140.167 217.722 139.13C214.103 137.608 210.336 136.265 206.414 136.036C201.953 135.782 197.56 136.976 193.155 137.719C179.288 140.052 162.968 139.768 151.963 131.022Z" fill="#FFCECE"/>
<path d="M256.503 274.188L251.955 279.925L243.379 290.737L233.466 303.233L230.696 306.724H225.324L92.302 306.878L8.99661 306.971H5.27901C4.78332 305.424 4.32482 303.877 3.90349 302.267C3.28389 299.965 2.74071 297.634 2.27394 295.274C2.1748 294.822 2.08806 294.37 2.00751 293.912L32.2317 274.175L43.5952 274.113L78.3548 273.915L97.7669 273.804H101.311H103.535L116.473 273.736L215.076 273.173L220.12 273.142H222.307L228.1 273.111L249.656 272.987L253.795 271.415L254.099 271.737L256.503 274.188Z" fill="#3F3D56"/>
<path d="M254.644 271.093L254.129 271.712L250.746 275.692L243.782 283.904L229.178 301.104L99.8054 297.805L2.24916 295.329C2.15002 294.878 2.06328 294.426 1.98273 293.968C0.501809 286.025 -0.152257 277.951 0.0309818 269.874L10.8492 264.341L13.3276 263.066L32.6158 253.163L49.5433 244.499L93.6961 250.23L103.473 251.499L107.897 252.068L114.372 252.91L114.917 252.984L216.452 266.136L227.673 267.59L234.259 268.444L254.557 271.081L254.644 271.093Z" fill="#504F60"/>
<path d="M233.577 300.801L233.472 303.233L232.852 316.967L229.519 392.473L228.813 408.794L226.954 450.78L225.907 474.497L222.127 473.314C220.169 472.691 218.213 472.056 216.259 471.408L225.324 306.779L225.516 303.326L229.507 302.088L233.577 300.801Z" fill="#3F3D56"/>
<path d="M9.28162 300.621L9.00281 306.977L8.59387 316.261C7.41249 313.327 6.33026 310.338 5.34716 307.293L5.25422 306.99C4.75853 305.442 4.30003 303.895 3.8787 302.286L9.28162 300.621Z" fill="#3F3D56"/>
<path d="M171.307 207.043C187.048 207.043 199.809 189.863 199.809 168.67C199.809 147.478 187.048 130.298 171.307 130.298C155.566 130.298 142.806 147.478 142.806 168.67C142.806 189.863 155.566 207.043 171.307 207.043Z" fill="#A1616A"/>
<path opacity="0.1" d="M171.307 207.043C187.048 207.043 199.809 189.863 199.809 168.67C199.809 147.478 187.048 130.298 171.307 130.298C155.566 130.298 142.806 147.478 142.806 168.67C142.806 189.863 155.566 207.043 171.307 207.043Z" fill="black"/>
<path d="M175.335 185.071C197.235 185.071 214.989 167.337 214.989 145.461C214.989 123.585 197.235 105.851 175.335 105.851C153.434 105.851 135.68 123.585 135.68 145.461C135.68 167.337 153.434 185.071 175.335 185.071Z" fill="#A1616A"/>
<path d="M176.122 84.4126C173.701 84.6054 171.297 84.9715 168.928 85.508C162.658 87.0305 157.236 90.4098 151.957 93.7271C149.59 95.2187 147.155 96.7721 145.687 98.963C143.047 102.893 144.07 107.894 142.589 112.257C141.821 114.498 140.408 116.509 139.212 118.595C135.922 124.313 134.199 130.595 132.508 136.815C132.161 138.103 132.062 139.848 133.468 140.343C134.278 140.511 135.121 140.416 135.872 140.071C140.315 138.604 145.959 138.183 149.256 141.16C152.552 144.137 152.273 149.416 156.195 151.681C160.687 154.299 167.701 151.137 171.778 154.225C173.526 155.55 174.158 157.672 175.589 159.269C178.922 162.983 185.335 162.803 190.67 162.054C193.731 161.621 197.486 161.33 199.344 163.478C200.237 164.493 200.491 165.885 201.525 166.801C203.384 168.46 206.786 167.618 208.601 165.916C210.417 164.214 211.284 161.912 212.796 160C215.739 156.286 220.913 154.262 223.949 150.592C226.489 147.498 227.257 143.623 227.951 139.885L230.535 126.028C231.582 120.408 232.536 114.269 229.37 109.317C228.243 107.535 226.625 106 225.653 104.156C225.002 102.918 224.636 101.612 223.881 100.442C222.984 99.2237 221.913 98.1435 220.702 97.2363L214.587 92.1798C212.496 90.3517 210.26 88.6959 207.901 87.2286C199.171 82.1474 186.097 83.4842 176.122 84.4126Z" fill="#464353"/>
<path d="M45.5097 186.445C44.0413 188.005 42.6843 189.688 41.1105 191.149C39.7261 192.379 38.2784 193.536 36.7733 194.615C34.3445 196.43 31.9694 198.31 29.6479 200.253C27.226 202.166 25.0345 204.353 23.1173 206.77C19.8087 211.208 18.2411 216.728 15.1431 221.315C12.4044 225.381 8.5443 228.593 5.76229 232.628C4.54181 234.325 3.63529 236.226 3.08561 238.242C2.67531 240.193 2.49029 242.184 2.53416 244.177C2.4784 247.445 2.42883 250.75 3.098 253.949C3.76717 257.149 5.23563 260.293 7.75121 262.391C10.0871 264.341 13.1046 265.238 16.0601 265.981C17.5843 266.359 19.2324 266.711 20.6823 266.111C21.7432 265.576 22.6641 264.8 23.3714 263.846L30.9119 255.181C35.9555 249.363 41.1973 243.422 48.1182 240.018C50.2868 238.96 52.5732 238.161 54.748 237.134C63.9676 232.696 70.4859 223.611 73.0138 213.708C73.6334 211.288 74.03 208.819 74.4327 206.349L75.5232 199.579C75.6069 199.239 75.6069 198.884 75.5232 198.545C75.3524 198.163 75.0776 197.837 74.7301 197.604C69.4778 193.367 64.5602 188.732 60.0208 183.741C58.9427 182.552 57.9327 180.925 56.6873 179.928C55.1259 178.69 55.2437 178.783 53.3663 179.928C50.4782 181.755 47.8377 183.945 45.5097 186.445Z" fill="#A1616A"/>
<path d="M97.0915 231.502C97.0288 231.358 96.9377 231.228 96.8236 231.121C96.7095 231.013 96.5748 230.929 96.4275 230.875C96.2803 230.821 96.1236 230.797 95.9668 230.804C95.81 230.812 95.6564 230.851 95.5151 230.92C95.3739 230.988 95.248 231.084 95.1449 231.203C95.0419 231.321 94.9638 231.459 94.9155 231.608C94.8671 231.757 94.8494 231.915 94.8635 232.071C94.8775 232.227 94.923 232.379 94.9973 232.517L94.3777 232.82L112.854 270.648L116.194 269.02L97.7173 231.168L97.0915 231.502Z" fill="#3F3D56"/>
<path opacity="0.04" d="M45.5097 186.445C44.0413 188.005 42.6843 189.688 41.1105 191.149C39.7261 192.379 38.2784 193.536 36.7733 194.615C34.3445 196.43 31.9694 198.31 29.6479 200.253C27.226 202.166 25.0345 204.353 23.1173 206.77C19.8087 211.208 18.2411 216.728 15.1431 221.315C12.4044 225.381 8.5443 228.593 5.76229 232.628C4.54181 234.325 3.63529 236.226 3.08561 238.242C2.67531 240.193 2.49029 242.184 2.53416 244.177C2.4784 247.445 2.42883 250.75 3.098 253.949C3.76717 257.149 5.23563 260.293 7.75121 262.391C10.0871 264.341 13.1046 265.238 16.0601 265.981C17.5843 266.359 19.2324 266.711 20.6823 266.111C21.7432 265.576 22.6641 264.8 23.3714 263.846L30.9119 255.181C35.9555 249.363 41.1973 243.422 48.1182 240.018C50.2868 238.96 52.5732 238.161 54.748 237.134C63.9676 232.696 70.4859 223.611 73.0138 213.708C73.6334 211.288 74.03 208.819 74.4327 206.349L75.5232 199.579C75.6069 199.239 75.6069 198.884 75.5232 198.545C75.3524 198.163 75.0776 197.837 74.7301 197.604C69.4778 193.367 64.5602 188.732 60.0208 183.741C58.9427 182.552 57.9327 180.925 56.6873 179.928C55.1259 178.69 55.2437 178.783 53.3663 179.928C50.4782 181.755 47.8377 183.945 45.5097 186.445Z" fill="black"/>
<path d="M259.111 256.159C259.049 260.108 258.894 264.174 257.252 267.776C256.546 269.335 255.449 270.87 253.807 271.384C252.814 271.613 251.785 271.651 250.777 271.495C238.621 270.428 226.372 271.399 214.537 274.367C217.697 268.054 215.882 260.485 216.755 253.479C216.997 251.567 217.437 249.685 217.604 247.767C218.224 240.959 215.305 234.349 213.967 227.627C212.805 221.809 212.805 215.819 213.967 210.001C214.195 208.503 214.71 207.064 215.485 205.761C216.393 204.494 217.585 203.458 218.967 202.735C223.986 199.882 229.903 199.554 235.541 199.931C239.34 200.185 246.955 199.826 250.121 202.159C253.584 204.716 254.681 213.3 255.617 217.267C257.017 223.351 257.97 229.53 258.467 235.754C259.074 242.537 259.204 249.351 259.111 256.159Z" fill="#A1616A"/>
<path d="M37.1637 269.862L59.4693 284.715L159.845 281.002L93.5474 269.862H37.1637Z" fill="white"/>
<path d="M66.5762 151.842C62.9143 155.067 59.8101 158.867 56.3403 162.302C51.5818 167.018 46.1727 171.028 40.7884 175.02C42.7189 175.559 44.4762 176.59 45.8882 178.011C47.3001 179.432 48.3184 181.196 48.8432 183.128C49.0786 184.038 49.1964 184.985 49.4628 185.876C50.0824 187.986 51.4455 189.806 52.9078 191.446C59.1905 198.52 67.9827 203.756 71.6879 212.489C71.8088 212.914 72.071 213.285 72.4314 213.541C72.7329 213.674 73.0677 213.713 73.3918 213.652C76.7438 213.3 79.309 210.601 81.4466 207.977C85.9077 202.407 89.7802 196.255 91.9798 189.459C94.1794 182.664 94.5326 175.15 92.1347 168.417C90.9389 165.062 89.0925 161.98 87.2585 158.929C85.6516 156.259 84.0489 153.594 82.4504 150.933C81.6139 149.528 80.5482 146.674 78.9062 145.981C75.3621 144.459 68.8501 149.571 66.5762 151.842Z" fill="#FFCECE"/>
<path d="M249.074 191.842L254.346 204.22C248.606 202.217 242.471 201.607 236.449 202.441C230.426 203.275 224.689 205.529 219.711 209.017C216.706 211.164 213.948 213.863 212.591 217.292C211.922 217.419 211.23 217.354 210.595 217.106C209.96 216.857 209.409 216.435 209.004 215.887C208.211 214.776 207.751 213.462 207.678 212.099C207.189 207.346 208.992 202.685 210.776 198.242C211.606 196.162 212.461 194.039 213.936 192.35C215.411 190.66 217.369 189.546 219.326 188.494C225.573 185.043 232.115 182.156 238.875 179.866C241.725 178.944 244.712 178.963 246.31 181.624C248.163 184.799 247.624 188.463 249.074 191.842Z" fill="#FFCECE"/>
<path d="M37.2938 228.983C38.6136 230.035 39.7722 231.279 41.1291 232.282C42.5642 233.277 44.0912 234.133 45.6894 234.838L51.7987 237.771C53.6918 238.754 55.6729 239.558 57.7159 240.173C60.3306 240.872 63.0754 240.94 65.7025 241.59C69.0174 242.407 72.0472 244.109 75.3125 245.093C78.5778 246.077 82.4008 246.238 85.127 244.189C86.8309 242.908 88.1197 240.792 90.2325 240.476C91.5957 240.296 92.9092 240.952 94.1236 241.59L110.023 249.939C112.166 251.065 114.434 252.316 115.556 254.463C116.677 256.611 115.921 259.872 113.561 260.429C112.738 260.524 111.91 260.571 111.082 260.572C110.264 260.671 109.372 261.154 109.261 261.977C109.256 262.488 109.391 262.991 109.651 263.431C110.363 265.065 110.574 267.021 109.744 268.605C108.914 270.19 106.875 271.174 105.245 270.462C105.524 272.857 102.916 274.534 100.592 275.172C94.7309 276.775 88.5163 275.791 82.5247 274.776C80.1702 274.38 77.7785 273.971 75.6347 272.919C74.6062 272.418 73.652 271.774 72.6111 271.31C69.7547 270.041 66.508 270.208 63.3852 270.264C48.9423 270.518 34.6233 267.844 20.4221 265.183C17.7888 264.687 15.0811 264.161 12.8319 262.707C8.49473 259.885 6.88377 254.092 7.59631 248.967C8.30886 243.843 10.9112 239.201 13.4701 234.695L16.785 228.859C17.2183 227.965 17.8249 227.166 18.5695 226.507C23.4457 222.788 33.1177 225.628 37.2938 228.983Z" fill="#A1616A"/>
<path opacity="0.04" d="M37.2938 228.983C38.6136 230.035 39.7722 231.279 41.1291 232.282C42.5642 233.277 44.0912 234.133 45.6894 234.838L51.7987 237.771C53.6918 238.754 55.6729 239.558 57.7159 240.173C60.3306 240.872 63.0754 240.94 65.7025 241.59C69.0174 242.407 72.0472 244.109 75.3125 245.093C78.5778 246.077 82.4008 246.238 85.127 244.189C86.8309 242.908 88.1197 240.792 90.2325 240.476C91.5957 240.296 92.9092 240.952 94.1236 241.59L110.023 249.939C112.166 251.065 114.434 252.316 115.556 254.463C116.677 256.611 115.921 259.872 113.561 260.429C112.738 260.524 111.91 260.571 111.082 260.572C110.264 260.671 109.372 261.154 109.261 261.977C109.256 262.488 109.391 262.991 109.651 263.431C110.363 265.065 110.574 267.021 109.744 268.605C108.914 270.19 106.875 271.174 105.245 270.462C105.524 272.857 102.916 274.534 100.592 275.172C94.7309 276.775 88.5163 275.791 82.5247 274.776C80.1702 274.38 77.7785 273.971 75.6347 272.919C74.6062 272.418 73.652 271.774 72.6111 271.31C69.7547 270.041 66.508 270.208 63.3852 270.264C48.9423 270.518 34.6233 267.844 20.4221 265.183C17.7888 264.687 15.0811 264.161 12.8319 262.707C8.49473 259.885 6.88377 254.092 7.59631 248.967C8.30886 243.843 10.9112 239.201 13.4701 234.695L16.785 228.859C17.2183 227.965 17.8249 227.166 18.5695 226.507C23.4457 222.788 33.1177 225.628 37.2938 228.983Z" fill="black"/>
<path d="M226.433 239.677C223.205 241.2 219.5 241.349 216.129 242.518C212.759 243.688 209.896 245.792 206.804 247.507C198.75 252 189.456 253.696 180.329 255.311C174.796 256.301 169.176 257.292 163.6 257.056C156.053 256.735 148.803 254.222 141.492 252.328C134.181 250.434 126.38 249.159 119.137 251.288C115.355 252.439 111.897 254.463 109.044 257.197C106.191 259.932 104.024 263.299 102.718 267.027C101.199 271.477 100.989 276.273 101.28 280.965C102.804 282.085 104.936 280.531 105.766 278.829C106.596 277.128 107.049 275.042 108.66 274.052C111.454 274.998 112.135 278.718 114.44 280.556C115.878 281.707 117.799 282.011 119.626 282.271L129.044 283.607C131.312 283.929 133.945 284.146 135.587 282.549C136.387 281.775 136.827 280.692 137.558 279.863C139.057 278.204 141.56 277.92 143.791 278.143C150.755 278.836 157.286 283.347 164.201 282.277C166.58 281.912 168.792 280.897 171.06 280.098C184.499 275.357 199.431 278.242 213.416 275.525C218.75 274.491 223.887 272.659 228.961 270.728C231.719 269.682 234.507 268.587 236.861 266.817C239.092 265.103 240.851 262.853 241.974 260.275C243.096 257.698 243.546 254.878 243.28 252.08C242.762 247.816 240.632 243.911 237.326 241.163C236.235 240.234 234.804 238.458 233.497 237.876C231 236.781 228.552 238.681 226.433 239.677Z" fill="#A1616A"/>
<g opacity="0.1">
<path opacity="0.1" d="M208.329 160.612C207.294 159.696 207.04 158.304 206.148 157.289C204.289 155.141 200.534 155.432 197.473 155.865C192.138 156.614 185.701 156.787 182.392 153.08C180.961 151.483 180.329 149.367 178.582 148.036C174.505 144.942 167.491 148.11 162.999 145.492C159.076 143.209 159.331 137.911 156.059 134.971C152.788 132.031 147.118 132.415 142.676 133.882C141.924 134.227 141.081 134.322 140.272 134.154C138.865 133.659 138.964 131.914 139.311 130.626C141.003 124.406 142.725 118.124 146.015 112.406C147.211 110.32 148.624 108.309 149.392 106.068C150.737 102.144 150.049 97.7067 151.815 93.9932C149.919 95.231 148.097 96.5803 146.926 98.3256C144.287 102.256 145.309 107.256 143.828 111.62C143.06 113.86 141.647 115.872 140.451 117.957C137.161 123.676 135.439 129.958 133.747 136.178C133.4 137.465 133.301 139.211 134.708 139.706C135.517 139.874 136.36 139.778 137.112 139.433C141.554 137.967 147.199 137.546 150.495 140.523C153.791 143.5 153.512 148.779 157.435 151.044C161.927 153.662 168.941 150.499 173.018 153.588C174.765 154.912 175.397 157.035 176.828 158.632C180.162 162.345 186.574 162.166 191.909 161.417C194.97 160.984 198.725 160.693 200.584 162.84C201.476 163.855 201.73 165.248 202.765 166.164C204.623 167.823 208.025 166.981 209.84 165.279C211.004 164.068 212.001 162.707 212.802 161.231C211.191 161.72 209.475 161.646 208.329 160.612Z" fill="black"/>
<path opacity="0.1" d="M219.618 153.804C219.219 154.318 218.848 154.853 218.509 155.407C220.888 153.711 223.41 152.127 225.188 149.967C225.649 149.408 226.064 148.812 226.427 148.185C223.955 149.955 221.377 151.582 219.618 153.804Z" fill="black"/>
</g>
<path d="M344.796 276.36L346.655 453.986L355.329 452.748L353.47 276.36H344.796Z" fill="#3F3D56"/>
<path d="M396.842 308.543L398.701 486.169L407.375 484.931L405.517 308.543H396.842Z" fill="#3F3D56"/>
<path d="M558.887 398.272L558.849 394.862V392.832L558.521 361.59L558.007 312.746L557.92 308.531H549.246L549.289 312.591L549.562 338.752L549.679 350.078L549.778 359.25L549.94 375.106L550.039 384.458V385.448L550.169 397.74L550.28 408.577L550.987 407.797C552.123 406.53 553.234 405.243 554.32 403.935L558.887 398.272Z" fill="#3F3D56"/>
<path d="M387.238 337.322L382.282 344.724L387.238 378.449L429.371 389.966H497.528L538.421 392.436L557.902 379.117L554.531 356.242L539.66 337.322H387.238Z" fill="#FEE7E7"/>
<path d="M382.282 344.724L379.803 365.284C379.803 365.284 366.792 405.594 471.504 403.124C576.217 400.655 558.248 392.43 558.248 392.43L557.629 368.577C557.629 368.577 561.278 379.866 508.061 378.337C454.843 376.809 405.207 371.87 405.207 371.87C405.207 371.87 386.619 375.156 382.282 344.724Z" fill="#3F3D56"/>
<path d="M469.522 160.439C463.549 163.156 459.025 168.423 455.996 174.247C452.966 180.071 451.262 186.464 449.583 192.814C447.811 199.511 446.032 206.226 445.115 213.089C443.48 225.294 444.707 238.124 450.32 249.085C455.934 260.046 466.306 268.89 478.45 271C483.14 271.823 487.961 271.656 492.701 271.167C501.268 270.261 509.708 268.403 517.863 265.628C526.382 262.75 535.249 258.319 539.041 250.156C541.24 245.421 541.426 240.024 541.321 234.813C541.029 220.61 538.881 206.505 534.933 192.857C533.787 188.896 532.454 184.904 530.026 181.568C527.597 178.233 524.276 175.788 520.886 173.523C506.394 163.775 487.347 152.344 469.522 160.439Z" fill="#FBBEBE"/>
<path opacity="0.05" d="M469.522 160.439C463.549 163.156 459.025 168.423 455.996 174.247C452.966 180.071 451.262 186.464 449.583 192.814C447.811 199.511 446.032 206.226 445.115 213.089C443.48 225.294 444.707 238.124 450.32 249.085C455.934 260.046 466.306 268.89 478.45 271C483.14 271.823 487.961 271.656 492.701 271.167C501.268 270.261 509.708 268.403 517.863 265.628C526.382 262.75 535.249 258.319 539.041 250.156C541.24 245.421 541.426 240.024 541.321 234.813C541.029 220.61 538.881 206.505 534.933 192.857C533.787 188.896 532.454 184.904 530.026 181.568C527.597 178.233 524.276 175.788 520.886 173.523C506.394 163.775 487.347 152.344 469.522 160.439Z" fill="black"/>
<path d="M462.811 238.341C464.54 240.714 466.631 242.803 469.007 244.53C474.906 248.602 482.477 249.153 489.64 249.376C495.39 249.549 501.982 249.221 505.589 244.74C507.212 242.723 507.943 240.148 508.6 237.641C512.653 222.25 515.532 206.573 517.212 190.747L533.619 190.802C540.72 221.172 540.137 252.743 539.518 283.929L538.619 329.406L528.049 328.286C502.949 325.631 477.812 322.976 452.575 322.518C437.789 322.246 422.998 322.734 408.262 323.979L431.28 255.614C434.266 246.727 437.284 237.722 437.984 228.382C438.994 214.835 435.189 200.532 440.462 187.999C440.884 186.99 441.416 185.944 442.377 185.418C443.337 184.892 444.552 185.022 445.654 185.164C447.736 185.443 454.1 185.164 455.611 186.495C457.842 188.426 456.367 188.717 455.581 191.83C454.174 197.4 452.842 202.556 452.86 208.361C452.879 218.901 456.151 230.029 462.811 238.341Z" fill="#FFCECE"/>
<path d="M558.887 398.272C561.65 394.608 564.254 390.814 566.7 386.89C565.461 384.242 564.097 381.655 563.013 378.95C561.353 374.803 560.398 370.409 559.457 366.046C559.134 364.56 558.814 363.075 558.496 361.59C555.027 345.43 551.767 329.041 551.092 312.659C551.03 311.297 550.991 309.936 550.974 308.574C550.974 308.376 550.974 308.184 550.974 307.955C550.974 306.464 550.974 304.972 550.974 303.487C551.049 299.773 551.284 296.029 551.712 292.303C551.792 291.573 551.885 290.842 551.984 290.112C551.984 289.951 552.022 289.797 552.046 289.636L594.179 288.101L597.723 287.971C600.158 287.884 602.736 287.748 604.743 286.368C608.12 284.053 608.517 279.306 608.461 275.227C608.256 264.919 607.086 254.652 604.966 244.561C603.368 236.973 601.088 229.218 595.97 223.388C591.769 218.598 585.684 215.113 583.497 209.153C582.686 206.937 582.481 204.505 581.428 202.388C580.374 200.272 578.633 198.718 576.991 197.084C571.213 191.365 566.419 184.732 562.803 177.453C560.293 172.402 557.573 166.832 554.295 163.342C554.134 163.162 553.973 162.995 553.806 162.834C551.018 160.08 547.827 158.873 544.047 160.748C543.368 161.089 542.721 161.491 542.114 161.949C540.767 162.977 539.535 164.147 538.44 165.44C534.622 169.825 531.272 174.595 528.446 179.675C526.458 183.251 524.751 186.975 523.34 190.815C522.227 193.848 521.306 196.949 520.583 200.098C520.05 202.432 519.629 204.79 519.294 207.154C518.055 216.042 518.055 225.102 518.228 234.101C518.414 242.37 518.78 250.657 519.53 258.895C519.715 260.887 519.922 262.878 520.149 264.867C520.604 268.799 521.165 272.719 521.835 276.626C522.101 278.118 522.374 279.609 522.677 281.095C522.752 281.491 522.832 281.887 522.913 282.277L522.95 282.444C523.768 285.897 524.403 289.39 524.852 292.91C524.902 293.351 524.939 293.791 524.964 294.228C525.068 296.251 525.051 298.278 524.914 300.299C524.771 302.688 524.548 305.071 524.437 307.46C524.437 307.881 524.437 308.296 524.394 308.698C524.363 309.905 524.394 311.112 524.394 312.319C524.519 315.206 524.863 318.08 525.422 320.915C526.467 326.189 528.272 331.284 530.782 336.041C531.017 336.487 531.259 336.926 531.5 337.359C534.642 342.967 538.607 348.11 541.513 353.847C544.02 359.01 545.892 364.457 547.089 370.069C547.503 371.921 547.895 373.778 548.267 375.639C548.843 378.61 549.357 381.605 549.884 384.601C549.933 384.898 549.989 385.219 550.045 385.492C550.745 389.465 551.482 393.42 552.43 397.3C552.982 399.559 553.601 401.788 554.326 403.978L558.887 398.272Z" fill="#464353"/>
<path d="M550.609 349.49C550.609 350.047 550.572 350.604 550.547 351.167C550.436 353.883 550.186 356.591 549.797 359.281C549.284 362.953 548.384 366.56 547.114 370.044C546.272 372.334 545.201 374.534 543.917 376.61C542.778 378.454 541.445 380.17 539.939 381.729C536.222 385.591 530.868 386.822 525.688 388.45C523.305 389.139 521.002 390.079 518.817 391.254C518.427 391.47 518.043 391.706 517.671 391.953L511.19 396.242C509.17 397.573 507.107 398.953 505.719 400.927C505.491 401.263 505.284 401.612 505.099 401.973C504.222 403.791 503.581 405.712 503.191 407.692C499.82 421.716 496.443 435.753 494.132 449.988C493.977 450.929 493.828 451.876 493.667 452.823L493.612 453.12C493.584 453.049 493.551 452.981 493.513 452.915C476.932 462.929 459.738 471.965 442.024 479.2L438.176 447.017C437.775 444.401 437.642 441.751 437.779 439.108C438.145 434.942 439.843 430.994 440.301 426.841C440.735 422.775 439.966 418.672 438.089 415.038C437.358 413.627 436.441 412.241 436.274 410.663C436.106 409.084 437.017 407.642 438.603 407.481C439.843 406.107 439.942 404.232 439.576 402.375C439.382 401.406 439.091 400.459 438.709 399.547C437.655 396.96 436.323 394.144 437.228 391.501C437.467 391.022 437.574 390.488 437.538 389.954C437.544 389.921 437.544 389.888 437.538 389.855C437.327 389.162 436.503 388.859 436.075 388.271C435.27 387.175 436.075 385.684 436.571 384.421C437.053 383.064 437.333 381.644 437.401 380.206C437.47 379.408 437.519 378.603 437.606 377.811C437.727 376.739 437.919 375.676 438.182 374.63C439.687 368.701 443.307 363.525 448.362 360.073C450.772 358.452 453.455 357.27 455.915 355.741C458.435 354.044 460.84 352.183 463.115 350.171C468.571 345.632 474.245 341.353 480.135 337.335C486.469 333.014 493.03 329.035 499.789 325.415C501.235 324.635 502.681 323.875 504.126 323.137C505.7 322.312 507.284 321.53 508.879 320.791C513.984 318.359 519.777 319.269 525.422 320.89C527.789 321.565 530.125 322.369 532.38 323.1C534.583 323.815 536.701 324.765 538.7 325.934C543.7 328.868 547.833 333.2 549.549 338.671C549.552 338.707 549.552 338.742 549.549 338.777C550.64 342.205 550.708 345.882 550.609 349.49Z" fill="#F86D70"/>
<path opacity="0.1" d="M550.609 349.49C550.609 350.047 550.572 350.604 550.547 351.167C550.436 353.883 550.186 356.591 549.797 359.281C549.284 362.953 548.384 366.56 547.114 370.044C546.272 372.334 545.201 374.534 543.917 376.61C542.778 378.454 541.445 380.17 539.939 381.729C536.222 385.591 530.868 386.822 525.688 388.45C523.305 389.139 521.002 390.079 518.817 391.254C518.427 391.47 518.043 391.706 517.671 391.953L511.19 396.242C509.17 397.573 507.107 398.953 505.719 400.927C505.491 401.263 505.284 401.612 505.099 401.973C504.222 403.791 503.581 405.712 503.191 407.692C499.82 421.716 496.443 435.753 494.132 449.988C493.977 450.929 493.828 451.876 493.667 452.823L493.612 453.12C493.584 453.049 493.551 452.981 493.513 452.915C476.932 462.929 459.738 471.965 442.024 479.2L438.176 447.017C437.775 444.401 437.642 441.751 437.779 439.108C438.145 434.942 439.843 430.994 440.301 426.841C440.735 422.775 439.966 418.672 438.089 415.038C437.358 413.627 436.441 412.241 436.274 410.663C436.106 409.084 437.017 407.642 438.603 407.481C439.843 406.107 439.942 404.232 439.576 402.375C439.382 401.406 439.091 400.459 438.709 399.547C437.655 396.96 436.323 394.144 437.228 391.501C437.467 391.022 437.574 390.488 437.538 389.954C437.544 389.921 437.544 389.888 437.538 389.855C437.327 389.162 436.503 388.859 436.075 388.271C435.27 387.175 436.075 385.684 436.571 384.421C437.053 383.064 437.333 381.644 437.401 380.206C437.47 379.408 437.519 378.603 437.606 377.811C437.727 376.739 437.919 375.676 438.182 374.63C439.687 368.701 443.307 363.525 448.362 360.073C450.772 358.452 453.455 357.27 455.915 355.741C458.435 354.044 460.84 352.183 463.115 350.171C468.571 345.632 474.245 341.353 480.135 337.335C486.469 333.014 493.03 329.035 499.789 325.415C501.235 324.635 502.681 323.875 504.126 323.137C505.7 322.312 507.284 321.53 508.879 320.791C513.984 318.359 519.777 319.269 525.422 320.89C527.789 321.565 530.125 322.369 532.38 323.1C534.583 323.815 536.701 324.765 538.7 325.934C543.7 328.868 547.833 333.2 549.549 338.671C549.552 338.707 549.552 338.742 549.549 338.777C550.64 342.205 550.708 345.882 550.609 349.49Z" fill="black"/>
<path d="M491.778 246.974C491.715 246.831 491.624 246.701 491.51 246.593C491.396 246.486 491.261 246.402 491.114 246.348C490.966 246.293 490.81 246.269 490.653 246.277C490.496 246.285 490.342 246.324 490.201 246.392C490.06 246.461 489.934 246.557 489.831 246.675C489.728 246.794 489.65 246.931 489.601 247.081C489.553 247.23 489.535 247.387 489.55 247.543C489.564 247.7 489.609 247.851 489.683 247.989L489.064 248.293L507.54 286.12L510.88 284.492L492.403 246.64L491.778 246.974Z" fill="#3F3D56"/>
<path d="M514.876 207.352C536.777 207.352 554.531 189.618 554.531 167.742C554.531 145.866 536.777 128.132 514.876 128.132C492.976 128.132 475.222 145.866 475.222 167.742C475.222 189.618 492.976 207.352 514.876 207.352Z" fill="#FBBEBE"/>
<path d="M567.214 143.221C567.029 140.072 566.56 136.947 565.814 133.882C563.484 123.874 559.227 114.021 551.898 106.836C551.446 105.079 550.906 103.346 550.28 101.643C550.269 101.601 550.254 101.559 550.237 101.519C548.051 95.5206 544.89 89.923 540.881 84.951C538.558 82.0669 535.546 79.2199 531.841 79.1085C530.8 79.0714 529.697 79.2509 528.743 78.7743C528.041 78.3211 527.451 77.7162 527.014 77.0043C525.18 74.6882 522.746 72.9169 519.977 71.8818C517.207 70.8466 514.208 70.587 511.301 71.1308L510.917 71.2113C510.7 71.2546 510.483 71.3041 510.298 71.3598C510.112 71.4155 509.777 71.5084 509.517 71.5888C509.802 72.0592 510.081 72.5358 510.353 73.0185C511.089 74.3265 511.77 75.6633 512.398 77.029C512.918 78.1678 513.4 79.3252 513.842 80.5011C507.497 81.2252 502.329 85.7247 497.608 90.0075L486.492 100.083C486.472 100.1 486.454 100.119 486.437 100.139L486.114 100.448C486.034 100.529 485.953 100.609 485.879 100.696C485.849 100.722 485.822 100.751 485.798 100.783C485.706 100.882 485.619 100.987 485.532 101.092C485.377 101.287 485.239 101.494 485.117 101.711C485.056 101.804 485.002 101.901 484.956 102.002C484.939 102.032 484.924 102.063 484.912 102.095C484.872 102.179 484.837 102.266 484.807 102.355C484.804 102.367 484.804 102.38 484.807 102.392C484.79 102.443 484.775 102.494 484.764 102.547C484.637 102.982 484.675 103.449 484.869 103.859L492.199 103.939H493.06C493.097 104.917 493.128 105.901 493.166 106.879C492.002 107.748 490.886 108.678 489.82 109.664C488.657 110.739 487.567 111.888 486.554 113.105C479.943 121.083 476.492 131.388 476.145 141.76C476.145 142.082 476.145 142.379 476.145 142.713C476.145 143.66 476.145 144.607 476.145 145.548C476.145 146.167 476.201 146.786 476.25 147.405C476.254 148.211 476.467 149.002 476.87 149.701C476.923 149.779 476.981 149.853 477.043 149.924C477.415 150.327 477.861 150.655 478.357 150.889L478.89 151.149C479.156 151.279 479.41 151.403 479.658 151.545C481.994 152.864 483.376 155.407 485.501 157.041C485.625 157.134 485.749 157.227 485.873 157.307L486.152 157.493L486.325 157.604L486.561 157.741C486.715 157.834 486.874 157.918 487.038 157.994L487.335 158.143H487.385C487.632 158.254 487.88 158.359 488.134 158.452L488.488 158.576L488.593 158.613C488.692 158.644 488.797 158.681 488.903 158.706C489.113 158.768 489.32 158.824 489.522 158.873L490.142 159.009C490.384 159.053 490.631 159.096 490.879 159.127L491.245 159.176L491.617 159.214C492.207 159.267 492.802 159.298 493.401 159.306C495.281 159.295 497.158 159.165 499.021 158.916L514.833 157.06C518.421 156.645 522.082 156.23 525.62 156.961C528.619 157.58 531.383 159.003 534.295 160.012C534.951 160.241 535.608 160.451 536.271 160.631C536.513 160.699 536.761 160.773 537.009 160.835L537.349 160.922L538.142 161.114C538.427 161.182 538.712 161.25 538.997 161.305C539.4 161.392 539.797 161.466 540.2 161.541C540.472 161.596 540.751 161.64 541.03 161.689H541.086L541.879 161.813H542.071L542.659 161.893C542.944 161.937 543.229 161.974 543.521 162.005C544.153 162.083 544.785 162.151 545.417 162.209C546.439 162.308 547.467 162.382 548.515 162.444L549.543 162.506L550.572 162.556L553.67 162.692H553.806H554.24C555.528 162.781 556.822 162.715 558.094 162.494C558.317 162.45 558.534 162.401 558.75 162.339C558.967 162.277 559.147 162.215 559.37 162.141C561.693 161.25 563.391 159.201 564.568 157.01C564.816 156.546 565.046 156.082 565.256 155.605C565.467 155.129 565.659 154.646 565.832 154.163C566.049 153.544 566.235 152.956 566.396 152.338C566.446 152.17 566.489 152.003 566.526 151.83C566.564 151.657 566.65 151.316 566.7 151.056C566.855 150.345 566.972 149.627 567.059 148.903C567.059 148.674 567.115 148.438 567.14 148.209C567.196 147.59 567.239 147.015 567.264 146.408C567.264 145.95 567.264 145.486 567.264 145.022C567.257 144.521 567.214 143.858 567.214 143.221ZM551.328 106.272C550.826 105.802 550.311 105.35 549.791 104.923C550.37 105.288 550.887 105.744 551.321 106.272H551.328Z" fill="#464353"/>
<path d="M438.771 165.564C434.105 164.988 429.477 162.946 424.873 163.948C421.992 164.567 419.514 166.356 417.209 168.194C408.631 175.061 401.338 183.39 395.665 192.795C394.703 194.202 394.027 195.783 393.676 197.45C393.379 199.381 393.905 201.342 394.531 203.193C398.769 215.701 407.834 226.148 411.961 238.693C416.298 251.888 414.792 266.309 411.595 279.826C407.632 296.513 401.191 312.513 392.487 327.296C391.305 329.494 389.824 331.519 388.087 333.312C385.832 335.478 382.802 337.025 381.464 339.86C380.844 341.098 380.665 342.509 380.225 343.833C378.985 347.547 375.987 350.728 375.695 354.645C375.478 357.635 376.897 360.463 377.759 363.31C379.211 368.201 379.057 373.428 377.319 378.226C374.177 386.828 365.961 394.651 368.347 403.496C373.669 401.967 379.568 399.98 382.077 395.048C382.963 393.302 383.403 391.223 384.896 389.948C387.877 387.416 392.951 389.706 396.117 387.379C398.509 385.609 398.596 381.982 397.53 379.197C396.464 376.412 394.63 373.961 393.812 371.096C392.387 365.928 394.668 360.463 394.246 355.122C394.048 352.646 393.286 350.276 393.23 347.813C393.125 343.029 395.777 338.529 399.302 335.28C402.828 332.031 407.183 329.877 411.471 327.754L427.68 319.708C433.56 316.799 440.004 313.253 441.931 306.99C442.662 304.644 442.668 302.144 442.705 299.693C443.257 262.243 452.65 225.548 461.987 189.274C463.437 183.654 464.912 178.01 467.068 172.613C469.224 167.216 473.444 162.884 475.594 157.871C463.121 156.41 451.727 167.185 438.771 165.564Z" fill="#464353"/>
<path d="M528.123 400.506C529.555 409.171 530.428 418.021 531.11 426.828C519.957 436.062 507.949 444.096 495.749 451.547C495.055 451.975 494.355 452.395 493.655 452.785L493.599 453.082C493.571 453.012 493.538 452.944 493.5 452.878C492.554 450.835 490.898 449.204 488.841 448.286C484.268 438.693 479.7 429.1 475.135 419.507C472.657 414.326 470.178 409.097 468.939 403.508C468.939 403.39 468.883 403.267 468.865 403.149C467.923 398.817 467.706 394.317 467.08 389.929C466.763 387.416 466.197 384.941 465.389 382.54C464.645 380.404 463.623 378.331 462.718 376.245C461.603 373.671 460.667 371.065 460.624 368.286C460.624 367.401 460.68 366.429 460.246 365.687C459.782 365.047 459.21 364.494 458.555 364.053C457.737 363.328 457.117 362.408 456.752 361.379C456.388 360.349 456.292 359.244 456.473 358.167C452.755 358.359 450.661 362.351 449.168 365.736C447.81 369.047 446.027 372.168 443.864 375.02C442.287 377.057 440.282 378.724 437.99 379.903C437.786 380.002 437.581 380.101 437.37 380.188C432.197 382.465 426.156 381.661 420.548 380.633C415.647 379.736 410.579 378.622 406.638 375.577L406.217 375.243C405.05 374.274 404.01 373.164 403.119 371.938C399.816 367.432 398.354 361.497 397.542 355.846C397.468 355.314 397.394 354.782 397.326 354.249C396.762 350.257 396.607 346.217 396.861 342.193C396.935 341.203 397.041 340.213 397.171 339.228C397.257 338.61 397.35 337.941 397.456 337.297C397.453 337.279 397.453 337.26 397.456 337.242C397.617 336.221 397.79 335.193 397.964 334.147C398.583 330.638 399.203 327.036 401.062 324.016C402.285 322.137 403.828 320.486 405.622 319.139C406.291 318.613 406.979 318.111 407.673 317.629C408.801 316.849 409.959 316.106 411.137 315.407C414.098 313.636 417.208 312.124 420.431 310.889C421.199 310.592 421.98 310.313 422.76 310.047C425.795 308.969 429.061 308.71 432.228 309.298C435.034 309.704 437.87 309.869 440.704 309.793C447.972 309.651 455.271 308.265 462.526 307.367C472.601 306.129 483.425 305.981 492.211 311.081C492.633 311.322 493.042 311.576 493.451 311.842C497.788 314.676 501.282 318.65 504.102 323.087C504.721 324.022 505.26 324.981 505.793 325.953C507.021 328.183 508.132 330.476 509.12 332.823C509.705 333.975 510.021 335.245 510.043 336.536C510.029 336.782 509.996 337.026 509.944 337.267C509.777 338.145 509.442 338.999 509.325 339.891C508.934 343.264 511.803 346.08 512.875 349.292C513.569 351.384 513.495 353.624 513.885 355.828C514.449 358.922 515.967 361.707 517.33 364.492C519.484 368.975 521.327 373.601 522.844 378.337C523.923 381.636 524.846 384.984 525.657 388.363C525.922 389.449 526.172 390.536 526.407 391.625C527.083 394.621 527.634 397.554 528.123 400.506Z" fill="#F86D70"/>
<path d="M594.185 308.853V313.185L593.386 313.173L592.494 313.16L582.531 313.036L557.982 312.715L551.092 312.628L549.308 312.603L538.966 312.473L524.393 312.281L493.475 311.879L439.824 311.186L420.461 310.938L412.692 310.839L405.541 310.746L401.087 310.685L396.867 310.629L365.583 310.227L356.909 310.115L355.019 310.09L353.792 306.928L344.876 283.96L343.247 279.764L344.486 274.813L350.062 278.526L353.495 278.953L410.009 285.972L420.616 287.29L443.108 290.087L465.141 292.823L473.778 293.894L524.889 300.244L539.171 302.02L550.993 303.487L593.027 308.71L594.185 308.853Z" fill="#3F3D56"/>
<path d="M344.486 274.813L355.639 303.901L594.185 308.853V277.288L344.486 274.813Z" fill="#504F60"/>
<path d="M356.878 306.996L358.737 484.622L367.411 483.384L365.552 306.996H356.878Z" fill="#3F3D56"/>
<path d="M593.386 313.166H592.494C591.049 324.241 588.659 335.171 585.35 345.838L582.531 313.036L582.413 311.638L592.835 310.437L593.182 310.4L593.386 313.166Z" fill="#3F3D56"/>
<path d="M559.488 292.142L468.716 293.999L440.524 284.715L516.115 280.383L559.488 292.142Z" fill="white"/>
<path d="M445.624 256.048C444.661 256.416 443.808 257.023 443.145 257.811C442.626 258.665 442.311 259.627 442.222 260.621L440.698 269.701C440.465 270.531 440.506 271.414 440.815 272.22C441.212 272.981 442.364 273.377 442.941 272.746C442.866 274.522 443.021 276.416 444.056 277.864C445.091 279.312 447.259 280.073 448.722 279.065C448.951 279.438 449.259 279.757 449.624 279.999C449.989 280.242 450.402 280.402 450.835 280.47C451.268 280.537 451.711 280.509 452.132 280.388C452.554 280.267 452.944 280.057 453.276 279.77C452.396 280.067 452.334 281.41 452.96 282.091C453.66 282.709 454.554 283.065 455.488 283.1C466.376 284.633 477.476 283.238 487.645 279.058C488.605 278.662 486.077 266.835 485.823 265.622C485.204 262.769 484.894 259.284 482.484 257.366C476.721 252.774 466.485 251.87 459.465 252.415C454.669 252.777 449.979 254.008 445.624 256.048Z" fill="#FBBEBE"/>
<path opacity="0.1" d="M537.981 257.422C515.57 257.849 492.695 258.214 471.306 251.511C473.349 259.419 473.208 267.733 470.897 275.568L575.684 284.233C580.127 284.598 598.547 286.677 602.878 285.631C607.209 284.585 566.539 271.205 568.181 267.064C572.698 255.658 587.828 248.973 576.929 248.546C563.174 248.002 551.842 257.162 537.981 257.422Z" fill="black"/>
<path d="M538.601 258.659C516.19 259.086 493.314 259.452 471.926 252.749C473.969 260.657 473.827 268.971 471.517 276.806L576.304 285.47C580.746 285.835 599.167 287.946 603.498 286.869C607.829 285.792 606.813 280.488 608.455 276.348C612.972 264.941 588.448 250.211 577.549 249.784C563.794 249.24 552.461 258.399 538.601 258.659Z" fill="#464353"/>
<path d="M502.968 260.38C503.93 260.748 504.783 261.355 505.446 262.144C505.964 262.998 506.282 263.959 506.375 264.954L507.9 274.033C508.129 274.864 508.088 275.746 507.782 276.552C507.385 277.313 506.227 277.709 505.657 277.078C505.725 278.854 505.576 280.748 504.541 282.196C503.507 283.645 501.338 284.406 499.87 283.397C499.64 283.77 499.332 284.089 498.968 284.332C498.603 284.574 498.189 284.735 497.756 284.802C497.323 284.869 496.88 284.841 496.459 284.72C496.037 284.6 495.647 284.389 495.316 284.103C496.195 284.4 496.263 285.743 495.638 286.423C494.935 287.041 494.039 287.398 493.104 287.432C482.217 288.965 471.119 287.57 460.952 283.391C459.992 282.995 462.514 271.167 462.774 269.954C463.394 267.101 463.703 263.617 466.114 261.698C471.87 257.106 482.112 256.202 489.132 256.747C493.926 257.11 498.614 258.341 502.968 260.38Z" fill="#FBBEBE"/>
<path d="M354.883 240.668C352.826 243.317 350.763 246.021 349.437 249.11C346.902 255.002 347.274 261.673 347.696 268.073C347.813 269.93 347.962 271.823 348.935 273.365C349.776 274.529 350.885 275.473 352.169 276.119C357.535 279.164 363.818 280.073 369.952 280.754C379.345 281.794 388.771 282.427 398.23 282.654C421.664 283.224 445.456 281.311 468.282 286.615C465.457 282.326 465.463 276.651 467.043 271.762C468.623 266.872 471.665 262.614 474.646 258.424C464.199 255.119 452.997 260.281 442.055 259.767C430.821 259.241 420.424 252.755 409.179 252.761C406.762 252.761 404.302 253.064 401.954 252.483C399.606 251.901 397.332 250.131 397.115 247.723C400.114 248.398 402.958 245.836 404.197 243.026C405.436 240.216 405.659 237.041 406.861 234.213C409.854 227.176 417.94 223.914 422.971 218.121C423.764 217.205 424.514 216.122 424.489 214.909C424.371 213.881 423.938 212.915 423.25 212.142C419.067 206.572 412.766 203.478 407.53 199.145C405.709 197.635 402.035 191.941 399.99 191.415C396.198 190.444 392.982 195.915 390.516 198.582C378.066 212.095 366.189 226.123 354.883 240.668Z" fill="#464353"/>
<path opacity="0.07" d="M479.472 239.096C481.043 240.259 482.439 241.641 483.617 243.199C484.205 243.982 484.623 244.877 484.846 245.83C485.069 246.782 485.092 247.771 484.912 248.732C484.72 246.938 485.12 245.131 486.052 243.586C486.984 242.04 488.396 240.842 490.074 240.173L479.472 239.096Z" fill="black"/>
<g opacity="0.1">
<path opacity="0.1" d="M513.835 76.7938C513.107 74.8595 512.267 72.9686 511.32 71.1309C510.708 71.2484 510.104 71.4034 509.511 71.595C510.574 73.3587 511.532 75.1836 512.379 77.06C512.857 76.9362 513.34 76.8496 513.835 76.7938Z" fill="black"/>
<path opacity="0.1" d="M549.785 101.197C549.952 101.333 550.113 101.488 550.274 101.631C550.262 101.59 550.248 101.551 550.231 101.513C550.09 101.41 549.942 101.305 549.785 101.197Z" fill="black"/>
<path opacity="0.1" d="M492.187 103.92C492.509 103.667 492.806 103.401 493.153 103.153L493.054 100.213L486.437 100.145C485.365 101.129 484.225 102.54 484.857 103.859L492.187 103.92Z" fill="black"/>
<path opacity="0.1" d="M564.531 153.408C563.354 155.599 561.656 157.654 559.333 158.539C557.542 159.22 555.572 159.158 553.657 159.071C547.127 158.805 540.484 158.514 534.313 156.354C531.426 155.339 528.662 153.922 525.639 153.297C522.101 152.566 518.439 152.981 514.852 153.402L499.039 155.259C494.374 155.803 489.175 156.212 485.451 153.352C483.32 151.719 481.945 149.175 479.609 147.863C478.623 147.306 477.452 146.947 476.814 146.006C476.411 145.308 476.198 144.516 476.195 143.71C476.145 143.06 476.114 142.41 476.089 141.76C476.022 143.649 476.057 145.539 476.195 147.423C476.198 148.23 476.411 149.021 476.814 149.72C477.434 150.654 478.623 151.013 479.609 151.576C481.945 152.888 483.326 155.432 485.451 157.066C489.169 159.925 494.374 159.542 499.039 158.972L514.852 157.115C518.439 156.695 522.101 156.28 525.639 157.01C528.638 157.629 531.401 159.053 534.313 160.068C540.509 162.228 547.127 162.543 553.657 162.785C555.572 162.865 557.542 162.933 559.333 162.252C561.656 161.367 563.354 159.313 564.531 157.122C566.811 152.882 567.449 148.073 567.208 143.227C567.075 146.776 566.161 150.252 564.531 153.408Z" fill="black"/>
</g>
<path opacity="0.1" d="M513.656 80.7734L522.33 88.8192C522.33 88.8192 514.895 85.7247 513.656 80.7734Z" fill="black"/>
</g>
<defs>
<clipPath id="clip0">
<rect width="609" height="497" fill="white"/>
</clipPath>
</defs>
</svg>
