<svg width="402" height="291" viewBox="0 0 402 291" fill="none" xmlns="http://www.w3.org/2000/svg">
<path d="M17.4218 146.721C21.7758 137.919 24.2383 130.253 22.922 129.598C21.6057 128.943 17.0091 135.547 12.6551 144.349C8.30108 153.151 5.83853 160.817 7.15481 161.472C8.47109 162.127 13.0678 155.523 17.4218 146.721Z" fill="#E0E0E0"/>
<path d="M238.29 256.745C242.644 247.943 245.448 240.447 244.554 240.002C243.66 239.557 239.405 246.331 235.051 255.133C230.697 263.935 227.893 271.431 228.787 271.876C229.681 272.321 233.936 265.546 238.29 256.745Z" fill="#E0E0E0"/>
<path d="M119.602 212.249L111.395 205.453L88.8081 232.889L97.0144 239.686L119.602 212.249Z" fill="#F55F44"/>
<path opacity="0.05" d="M100.73 241.875L112.387 244.624L120.506 209.987L108.85 207.238L100.73 241.875Z" fill="black"/>
<path d="M102.027 242.181L112.387 244.624L120.506 209.987L110.146 207.544L102.027 242.181Z" fill="#F55F44"/>
<path opacity="0.05" d="M138.117 186.927L119.845 177.833L104.077 209.707L122.35 218.8L138.117 186.927Z" fill="black"/>
<path d="M137.322 186.531L120.639 178.229L104.872 210.102L121.555 218.405L137.322 186.531Z" fill="#F55F44"/>
<path opacity="0.05" d="M134.145 184.95L123.022 179.415L107.255 211.288L118.377 216.824L134.145 184.95Z" fill="black"/>
<path d="M133.35 184.554L123.817 179.81L108.05 211.684L117.583 216.428L133.35 184.554Z" fill="#F55F44"/>
<path d="M132.066 287.357C132.883 287.357 133.545 286.692 133.545 285.873C133.545 285.054 132.883 284.39 132.066 284.39C131.25 284.39 130.588 285.054 130.588 285.873C130.588 286.692 131.25 287.357 132.066 287.357Z" fill="#DBDBDB"/>
<g opacity="0.5">
<path opacity="0.5" d="M16.3724 244.343H14.8562V252.961H16.3724V244.343Z" fill="#47E6B1"/>
<path opacity="0.5" d="M19.9102 249.412V247.891H11.3183V249.412H19.9102Z" fill="#47E6B1"/>
</g>
<g opacity="0.5">
<path opacity="0.5" d="M398.462 136.872H396.946V145.49H398.462V136.872Z" fill="#47E6B1"/>
<path opacity="0.5" d="M402 141.942V140.421H393.408V141.942H402Z" fill="#47E6B1"/>
</g>
<g opacity="0.5">
<path opacity="0.5" d="M25.4698 29.9092H23.9536V38.5271H25.4698V29.9092Z" fill="#47E6B1"/>
<path opacity="0.5" d="M29.0076 34.9785V33.4577H20.4157V34.9785H29.0076Z" fill="#47E6B1"/>
</g>
<g opacity="0.5">
<path opacity="0.5" d="M352.975 16.7289H351.459V25.3467H352.975V16.7289Z" fill="#47E6B1"/>
<path opacity="0.5" d="M356.513 21.7982V20.2774H347.921V21.7982H356.513Z" fill="#47E6B1"/>
</g>
<path opacity="0.5" d="M6.21133 128.486C5.79349 128.303 5.45715 127.973 5.26633 127.558C5.07551 127.143 5.04355 126.672 5.17651 126.235C5.19803 126.168 5.21158 126.098 5.21689 126.028C5.22905 125.828 5.17656 125.629 5.06719 125.461C4.95782 125.293 4.79739 125.164 4.60966 125.095C4.42193 125.025 4.21689 125.019 4.02491 125.075C3.83293 125.132 3.66422 125.249 3.54376 125.409C3.50234 125.466 3.46775 125.527 3.44071 125.592C3.25873 126.011 2.92946 126.349 2.51558 126.54C2.1017 126.732 1.63211 126.764 1.19618 126.63C1.12935 126.609 1.06021 126.595 0.990207 126.59C0.790485 126.578 0.592159 126.63 0.424605 126.74C0.257051 126.85 0.129181 127.011 0.0599307 127.199C-0.00931923 127.387 -0.0162623 127.593 0.0401264 127.785C0.0965152 127.978 0.213235 128.147 0.373005 128.268C0.429692 128.31 0.491069 128.344 0.555862 128.371C0.973702 128.554 1.31004 128.884 1.50086 129.299C1.69168 129.714 1.72364 130.185 1.59068 130.623C1.56916 130.69 1.55561 130.759 1.55029 130.829C1.53814 131.03 1.59064 131.228 1.70001 131.397C1.80938 131.565 1.96981 131.693 2.15753 131.762C2.34526 131.832 2.5503 131.839 2.74228 131.782C2.93426 131.726 3.10297 131.609 3.22343 131.448C3.26485 131.391 3.29945 131.33 3.32648 131.265C3.50846 130.846 3.83773 130.508 4.25161 130.317C4.66549 130.126 5.13508 130.094 5.57101 130.227C5.63784 130.249 5.70698 130.262 5.77698 130.267C5.97671 130.28 6.17504 130.227 6.34259 130.117C6.51015 130.008 6.63803 129.847 6.70728 129.658C6.77653 129.47 6.78347 129.264 6.72708 129.072C6.67069 128.879 6.55396 128.71 6.39419 128.589C6.3375 128.548 6.27612 128.513 6.21133 128.486Z" fill="#4D8AF0"/>
<path opacity="0.5" d="M93.1418 28.6197C92.724 28.4372 92.3876 28.1069 92.1968 27.6918C92.006 27.2766 91.974 26.8056 92.107 26.3684C92.1285 26.3014 92.142 26.232 92.1474 26.1618C92.1595 25.9615 92.107 25.7625 91.9977 25.5945C91.8883 25.4264 91.7278 25.2981 91.5401 25.2287C91.3524 25.1592 91.1474 25.1523 90.9554 25.2088C90.7634 25.2654 90.5947 25.3825 90.4742 25.5427C90.4328 25.5996 90.3982 25.6611 90.3712 25.7261C90.1892 26.1452 89.8599 26.4826 89.446 26.674C89.0322 26.8654 88.5626 26.8974 88.1266 26.7641C88.0598 26.7425 87.9907 26.7289 87.9207 26.7236C87.721 26.7114 87.5226 26.764 87.3551 26.8737C87.1875 26.9834 87.0596 27.1443 86.9904 27.3326C86.9211 27.5209 86.9142 27.7266 86.9706 27.9191C87.027 28.1117 87.1437 28.2809 87.3035 28.4018C87.3602 28.4433 87.4215 28.478 87.4863 28.5051C87.9042 28.6876 88.2405 29.0179 88.4313 29.433C88.6221 29.8482 88.6541 30.3192 88.5211 30.7564C88.4996 30.8234 88.4861 30.8928 88.4808 30.963C88.4686 31.1633 88.5211 31.3623 88.6305 31.5303C88.7398 31.6984 88.9003 31.8266 89.088 31.8961C89.2757 31.9656 89.4808 31.9725 89.6727 31.916C89.8647 31.8594 90.0334 31.7423 90.1539 31.5821C90.1953 31.5252 90.2299 31.4636 90.2569 31.3987C90.4389 30.9796 90.7682 30.6422 91.1821 30.4508C91.596 30.2594 92.0656 30.2274 92.5015 30.3607C92.5683 30.3823 92.6374 30.3959 92.7074 30.4012C92.9072 30.4134 93.1055 30.3608 93.2731 30.2511C93.4406 30.1414 93.5685 29.9804 93.6377 29.7922C93.707 29.6039 93.7139 29.3982 93.6575 29.2056C93.6012 29.0131 93.4844 28.8439 93.3246 28.723C93.268 28.6815 93.2066 28.6468 93.1418 28.6197Z" fill="#4D8AF0"/>
<path opacity="0.5" d="M199.278 287.664C198.86 287.481 198.524 287.151 198.333 286.736C198.142 286.32 198.11 285.849 198.243 285.412C198.265 285.345 198.278 285.276 198.283 285.206C198.296 285.005 198.243 284.806 198.134 284.638C198.024 284.47 197.864 284.342 197.676 284.272C197.488 284.203 197.283 284.196 197.091 284.253C196.899 284.309 196.731 284.426 196.61 284.586C196.569 284.643 196.534 284.705 196.507 284.77C196.325 285.189 195.996 285.526 195.582 285.718C195.168 285.909 194.699 285.941 194.263 285.808C194.196 285.786 194.127 285.773 194.057 285.767C193.857 285.755 193.659 285.808 193.491 285.918C193.324 286.027 193.196 286.188 193.126 286.376C193.057 286.565 193.05 286.77 193.107 286.963C193.163 287.156 193.28 287.325 193.44 287.446C193.496 287.487 193.558 287.522 193.622 287.549C194.04 287.731 194.377 288.062 194.567 288.477C194.758 288.892 194.79 289.363 194.657 289.8C194.636 289.867 194.622 289.937 194.617 290.007C194.605 290.207 194.657 290.406 194.767 290.574C194.876 290.742 195.036 290.87 195.224 290.94C195.412 291.009 195.617 291.016 195.809 290.96C196.001 290.903 196.169 290.786 196.29 290.626C196.331 290.569 196.366 290.508 196.393 290.443C196.575 290.023 196.904 289.686 197.318 289.495C197.732 289.303 198.202 289.271 198.638 289.405C198.704 289.426 198.773 289.44 198.844 289.445C199.043 289.457 199.242 289.405 199.409 289.295C199.577 289.185 199.705 289.024 199.774 288.836C199.843 288.648 199.85 288.442 199.794 288.249C199.737 288.057 199.62 287.888 199.461 287.767C199.404 287.725 199.343 287.691 199.278 287.664Z" fill="#4D8AF0"/>
<path opacity="0.5" d="M383.805 228.121C385.48 228.121 386.838 226.759 386.838 225.079C386.838 223.399 385.48 222.038 383.805 222.038C382.131 222.038 380.773 223.399 380.773 225.079C380.773 226.759 382.131 228.121 383.805 228.121Z" fill="#F55F44"/>
<path opacity="0.5" d="M317.091 247.384C318.766 247.384 320.124 246.023 320.124 244.343C320.124 242.663 318.766 241.301 317.091 241.301C315.416 241.301 314.059 242.663 314.059 244.343C314.059 246.023 315.416 247.384 317.091 247.384Z" fill="#4D8AF0"/>
<path opacity="0.5" d="M52.2565 277.293C53.9313 277.293 55.2889 275.932 55.2889 274.252C55.2889 272.572 53.9313 271.21 52.2565 271.21C50.5817 271.21 49.224 272.572 49.224 274.252C49.224 275.932 50.5817 277.293 52.2565 277.293Z" fill="#47E6B1"/>
<path opacity="0.5" d="M207.923 6.08322C209.597 6.08322 210.955 4.72145 210.955 3.04161C210.955 1.36178 209.597 0 207.923 0C206.248 0 204.89 1.36178 204.89 3.04161C204.89 4.72145 206.248 6.08322 207.923 6.08322Z" fill="#F55F44"/>
<path d="M103.556 181.229L91.4258 199.479C91.4258 199.479 95.469 218.236 184.927 217.729C274.384 217.222 281.46 199.479 281.46 199.479L264.781 175.146L213.735 140.168L103.556 181.229Z" fill="#403D4B"/>
<path d="M361.567 113.553L202.363 184.017L8.28569 113.553L186.19 32.4438L273.52 72.8314L276.648 74.2812L361.567 113.553Z" fill="#3F3C4A"/>
<path d="M279.943 130.445L276.911 130.627L273.52 72.8314L276.648 74.2812L279.943 130.445Z" fill="#F5F5F5"/>
<path d="M279.691 148.025C287.786 148.025 294.348 143.486 294.348 137.886C294.348 132.287 287.786 127.748 279.691 127.748C271.596 127.748 265.034 132.287 265.034 137.886C265.034 143.486 271.596 148.025 279.691 148.025Z" fill="#F5F5F5"/>
<path d="M23.3162 128.801L6.76062 162.269L228.411 272.577L244.967 239.109L23.3162 128.801Z" fill="url(#paint0_linear)"/>
<path opacity="0.15" d="M103.556 181.229L91.4258 199.479C91.4258 199.479 95.469 218.236 184.927 217.729C274.384 217.222 281.46 199.479 281.46 199.479L264.781 175.146L213.735 140.168L103.556 181.229Z" fill="#050505"/>
<path opacity="0.15" d="M361.567 113.553L202.363 184.017L8.28569 113.553L186.19 32.4438L273.52 72.8314L276.648 74.2812L361.567 113.553Z" fill="#464353"/>
<path d="M105.577 113.3L91.4258 199.479C91.4258 199.479 193.013 166.528 281.46 199.479L268.319 108.231C268.319 108.231 149.548 93.5295 105.577 113.3Z" fill="#464353"/>
<path d="M228.805 271.78C224.467 269.693 3.97704 159.89 7.15482 161.472C19.3927 142.737 22.922 129.598 22.922 129.598L244.573 239.906C244.573 239.906 236.789 253.608 228.805 271.78Z" fill="#F5F5F5"/>
<defs>
<linearGradient id="paint0_linear" x1="117.586" y1="217.423" x2="134.222" y2="183.995" gradientUnits="userSpaceOnUse">
<stop stop-color="#808080" stop-opacity="0.25"/>
<stop offset="0.53514" stop-color="#808080" stop-opacity="0.12"/>
<stop offset="1" stop-color="#808080" stop-opacity="0.1"/>
</linearGradient>
</defs>
</svg>
